<?xml version="1.0" standalone="no"?>
<!DOCTYPE svg PUBLIC "-//W3C//DTD SVG 20010904//EN"
 "http://www.w3.org/TR/2001/REC-SVG-20010904/DTD/svg10.dtd">
<svg version="1.0" xmlns="http://www.w3.org/2000/svg"
 width="1024.000000pt" height="1024.000000pt" viewBox="0 0 1024.000000 1024.000000"
 preserveAspectRatio="xMidYMid meet">

<g transform="translate(0.000000,1024.000000) scale(0.100000,-0.100000)"
fill="#000000" stroke="none">
<path d="M2388 8579 c-95 -10 -240 -57 -322 -105 -257 -151 -407 -385 -437
-681 -7 -73 -9 -924 -6 -2732 4 -2295 6 -2635 20 -2701 55 -273 226 -496 471
-615 109 -53 185 -72 343 -85 158 -13 5265 -13 5388 0 127 14 197 33 300 85
229 115 400 333 455 580 19 89 20 132 20 2785 0 1840 -3 2716 -11 2760 -43
270 -216 500 -464 620 -126 61 -206 80 -375 91 -174 10 -5280 9 -5382 -2z
m2804 -940 c82 -42 373 -347 516 -542 212 -287 323 -549 379 -892 23 -144 23
-532 -1 -880 l-17 -250 113 -110 c62 -60 176 -171 254 -245 227 -218 229 -223
238 -725 8 -402 4 -441 -48 -494 -27 -27 -44 -35 -83 -38 -78 -8 -56 -24 -527
396 -93 83 -178 151 -188 151 -21 0 -28 -14 -57 -116 -25 -86 -56 -134 -101
-156 -32 -16 -79 -18 -545 -18 -477 0 -513 1 -545 19 -47 24 -76 70 -101 155
-29 102 -36 116 -58 116 -10 0 -147 -114 -311 -260 -160 -143 -305 -267 -320
-275 -71 -37 -161 -7 -197 65 -22 42 -23 55 -22 285 0 132 4 317 8 410 13 258
32 297 258 509 76 71 186 176 244 233 l107 104 -14 197 c-27 389 -34 638 -24
760 46 536 249 947 695 1410 135 141 229 212 277 212 16 0 47 -9 70 -21z
m-309 -4184 c9 -8 18 -34 22 -57 20 -138 59 -230 127 -304 49 -53 95 -66 145
-39 69 37 134 160 158 299 8 49 20 95 26 103 7 7 31 13 59 13 63 0 108 -31
140 -95 22 -45 25 -63 25 -170 0 -170 -29 -253 -149 -430 -73 -107 -239 -281
-278 -290 -51 -13 -81 5 -173 99 -235 239 -335 450 -323 682 6 104 23 145 78
181 39 27 120 32 143 8z"/>
<path d="M5026 6449 c-113 -27 -224 -121 -279 -237 -30 -62 -32 -75 -32 -172
0 -97 2 -110 32 -172 44 -94 109 -160 202 -206 72 -36 79 -37 181 -37 102 0
109 1 181 37 93 46 158 112 202 206 30 62 32 75 32 172 0 97 -2 110 -31 170
-57 119 -142 193 -262 230 -68 21 -159 25 -226 9z"/>
</g>
</svg>
